<svg width="412" height="286" viewBox="0 0 412 286" fill="none" xmlns="http://www.w3.org/2000/svg">
<g clip-path="url(#clip0_439_16118)">
<path opacity="0.1" d="M376.131 284.694H43.1338L0.60284 141.849C0.106583 139.168 0.207345 136.409 0.898253 133.771C1.58882 131.133 2.85267 128.68 4.59903 126.588L91.4079 6.864C93.0318 4.91679 95.0385 3.32518 97.3025 2.18739C99.5667 1.04993 102.04 0.391095 104.569 0.251541L314.895 10.2684C316.009 10.3236 317.124 10.3305 318.238 10.3442C321.736 10.3932 325.147 11.4348 328.077 13.3483C331.007 15.2614 333.335 17.968 334.794 21.1537C335.729 23.2456 336.792 25.2779 337.975 27.2389L410.921 173.458C411.873 176.622 411.966 179.984 411.182 183.195L376.131 284.694Z" fill="url(#paint0_linear_439_16118)"/>
<path d="M149.394 260.787C147.211 260.787 145.041 259.825 143.293 258.513C127.393 246.613 115.892 237.9 108.589 224.688C101.42 211.722 98.4264 195.03 97.9457 165.303L97.8496 159.236L103.841 158.508C116.503 156.986 138.541 145.498 145.968 141.196L149.542 139.135L152.975 141.399C172.978 154.522 194.924 158.514 195.143 158.552L200.894 159.583L200.678 165.423C199.645 192.474 195.49 211.812 187.559 226.247C180.394 239.33 171.131 246.293 162.966 252.432C160.491 254.294 158.16 256.294 155.887 258.19C154.07 259.709 151.767 260.784 149.401 260.784L149.394 260.787Z" fill="#444444"/>
<path opacity="0.2" d="M149.394 260.787C147.211 260.787 145.041 259.825 143.293 258.513C127.393 246.613 115.892 237.9 108.589 224.688C101.42 211.722 98.4264 195.03 97.9457 165.303L97.8496 159.236L103.841 158.508C116.503 156.986 138.541 145.498 145.968 141.196L149.542 139.135L152.975 141.399C172.978 154.522 194.924 158.514 195.143 158.552L200.894 159.583L200.678 165.423C199.645 192.474 195.49 211.812 187.559 226.247C180.394 239.33 171.131 246.293 162.966 252.432C160.491 254.294 158.16 256.294 155.887 258.19C154.07 259.709 151.767 260.784 149.401 260.784L149.394 260.787Z" fill="#1ABC9C"/>
<path d="M149.353 146.817C149.353 146.817 121.485 162.963 104.672 164.973C105.592 221.458 115.668 229.051 147.355 252.755C147.973 253.221 148.73 253.464 149.503 253.445C150.276 253.427 151.021 253.147 151.616 252.652C169.616 237.588 191.47 231.05 194.038 164.983C194.038 164.973 170.856 160.936 149.353 146.817ZM149.353 146.817C149.353 146.817 121.485 162.963 104.672 164.973C105.592 221.458 115.668 229.051 147.355 252.755C147.973 253.221 148.73 253.464 149.503 253.445C150.276 253.427 151.021 253.147 151.616 252.652C169.616 237.588 191.47 231.05 194.038 164.983C194.038 164.973 170.856 160.936 149.353 146.817ZM149.353 146.817C149.353 146.817 121.485 162.963 104.672 164.973C105.592 221.458 115.668 229.051 147.355 252.755C147.973 253.221 148.73 253.464 149.503 253.445C150.276 253.427 151.021 253.147 151.616 252.652C169.616 237.588 191.47 231.05 194.038 164.983C194.038 164.973 170.856 160.936 149.353 146.817Z" fill="#1ABC9C"/>
<path d="M172.689 186.977L150.063 213.306L144.076 220.263C143.893 220.475 143.657 220.634 143.391 220.722C143.126 220.811 142.841 220.825 142.568 220.765L136.598 213.323L125.917 200.011C125.73 199.779 125.591 199.514 125.508 199.228C125.424 198.943 125.397 198.644 125.429 198.349C125.461 198.054 125.551 197.767 125.693 197.507C125.836 197.246 126.028 197.016 126.26 196.83L130.943 193.085C131.41 192.709 132.008 192.534 132.604 192.599C133.2 192.663 133.746 192.962 134.122 193.429L143.392 204.965L164.765 180.116C165.098 179.732 165.569 179.495 166.076 179.458C166.584 179.42 167.085 179.586 167.47 179.917L172.487 184.277C172.871 184.608 173.108 185.079 173.146 185.585C173.184 186.091 173.019 186.592 172.689 186.977Z" fill="#B2B6BC"/>
<path d="M172.854 187.64L151.351 212.643L145.672 219.249C145.5 219.451 145.276 219.603 145.025 219.686C144.773 219.77 144.503 219.783 144.244 219.723L138.572 212.643L128.434 200.018C128.079 199.571 127.916 199.002 127.981 198.435C128.045 197.868 128.331 197.35 128.777 196.994L133.203 193.439C133.647 193.081 134.214 192.915 134.781 192.976C135.347 193.037 135.867 193.321 136.224 193.765L145.006 204.717L165.277 181.123C165.593 180.757 166.04 180.532 166.522 180.497C167.003 180.462 167.479 180.619 167.845 180.934L172.652 185.084C173.017 185.396 173.244 185.841 173.281 186.32C173.319 186.799 173.166 187.274 172.854 187.64Z" fill="white"/>
<path d="M405.418 285.748H11.6727C11.533 285.748 11.3993 285.693 11.3006 285.593C11.2019 285.497 11.1465 285.363 11.1465 285.221C11.1465 285.083 11.2019 284.949 11.3006 284.849C11.3993 284.749 11.533 284.694 11.6727 284.694H405.418C405.559 284.694 405.693 284.749 405.789 284.849C405.889 284.949 405.944 285.083 405.944 285.221C405.944 285.363 405.889 285.497 405.789 285.593C405.693 285.693 405.559 285.748 405.418 285.748Z" fill="#B2B6BB"/>
<path d="M34.4004 259.385H384.016L376.13 284.694H43.1322L34.4004 259.385Z" fill="#B2B6BB"/>
<path d="M336.165 151.042H254.426V259.288H336.165V151.042Z" fill="#3476DB"/>
<path opacity="0.4" d="M336.165 151.042H254.426V259.288H336.165V151.042Z" fill="white"/>
<path opacity="0.2" d="M336.169 151.042H254.512V159.044H336.169V151.042Z" fill="black"/>
<path opacity="0.15" d="M336.165 235.178H254.426V259.288H336.165V235.178Z" fill="black"/>
<path d="M181.234 147.555V259.288H254.425V147.555L217.829 125.513L181.234 147.555Z" fill="#3476DB"/>
<path opacity="0.6" d="M181.234 147.555V259.288H254.425V147.555L217.829 125.513L181.234 147.555Z" fill="white"/>
<path opacity="0.15" d="M254.425 235.178H181.234V259.288H254.425V235.178Z" fill="black"/>
<path opacity="0.2" d="M180.844 147.555V155.195L214.426 134.041L254.546 159.188V152.472L217.439 125.513L180.844 147.555Z" fill="black"/>
<path d="M169.521 151.042L213.947 122.022L258.37 151.042L255.574 156.814L213.947 129.623L172.321 156.814L169.521 151.042Z" fill="white"/>
<path d="M213.947 122.022H306.293L343.49 149.767H256.141L213.947 122.022Z" fill="#61656D"/>
<path d="M255.57 156.818H343.487V149.478H255.57V156.818Z" fill="white"/>
<path opacity="0.1" d="M255.57 156.818H343.487V149.478H255.57V156.818Z" fill="black"/>
<path d="M227.92 158.396H201.852V190.993H227.92V158.396Z" fill="white"/>
<path opacity="0.15" d="M227.862 158.337H227.137V190.934H227.862V158.337Z" fill="black"/>
<path d="M225.543 159.998H204.225V189.391H225.543V159.998Z" fill="#F0F0F0"/>
<path d="M215.358 160.318H213.453V189.339H215.358V160.318Z" fill="white"/>
<path opacity="0.6" d="M204.311 181.834L220.086 160.011H225.45V165.549L207.681 189.311L204.311 189.325V181.834Z" fill="white"/>
<path opacity="0.15" d="M204.218 159.933H203.582V189.339H204.218V159.933Z" fill="black"/>
<path opacity="0.15" d="M215.357 160.253H214.721V189.342H215.357V160.253Z" fill="black"/>
<path d="M225.544 180.8H203.582V181.841H225.544V180.8Z" fill="white"/>
<path opacity="0.6" d="M217.195 189.325L225.545 178.898V185.993L222.34 189.391L217.195 189.325Z" fill="white"/>
<path opacity="0.6" d="M204.311 167.568L209.627 160.011H215.106L204.311 173.967V167.568Z" fill="white"/>
<path d="M274.6 190.297H318.142V163.813H274.6V190.297Z" fill="white"/>
<path opacity="0.15" d="M274.65 190.242H275.304V163.757H274.65V190.242Z" fill="black"/>
<path d="M276.742 188.853H316.58V165.253H276.742V188.853Z" fill="#F0F0F0"/>
<path d="M298.521 165.163H296.805V188.808H298.521V165.163Z" fill="white"/>
<path opacity="0.6" d="M311.17 188.702L286.429 165.267L276.793 165.102V169.567L296.526 188.702H311.17Z" fill="white"/>
<path opacity="0.15" d="M316.297 188.805H316.871V165.194H316.297V188.805Z" fill="black"/>
<path opacity="0.15" d="M296.805 188.808H297.379V165.101H296.805V188.808Z" fill="black"/>
<path opacity="0.6" d="M287.932 188.702L276.793 180.577V184.556L282.522 188.702H287.932Z" fill="white"/>
<path opacity="0.6" d="M316.264 173.823L305.424 165.422H298.584L316.264 179.587V173.823Z" fill="white"/>
<path d="M264.895 259.288H299.492V211.509L264.895 199.321V259.288Z" fill="#3476DB"/>
<path opacity="0.6" d="M264.895 259.288H299.492V211.509L264.895 199.321V259.288Z" fill="white"/>
<path opacity="0.15" d="M298.226 240.719H264.895V259.288H298.226V240.719Z" fill="black"/>
<path d="M357.007 211.509H298.254V259.288H357.007V211.509Z" fill="#3476DB"/>
<path opacity="0.4" d="M357.007 211.509H298.254V259.288H357.007V211.509Z" fill="white"/>
<path opacity="0.2" d="M357.005 211.509H299.49V215.365H357.005V211.509Z" fill="black"/>
<path opacity="0.15" d="M356.995 240.719H298.225V259.288H356.995V240.719Z" fill="black"/>
<path opacity="0.2" d="M264.895 201.816L299.492 215.365V211.509L264.895 199.321V201.816Z" fill="black"/>
<path d="M262.174 195.08H325.466L360.466 210.81H300.416L262.174 195.08Z" fill="#61656D"/>
<path d="M299.602 214.162H360.37L360.507 210.682L299.804 210.389L299.602 214.162Z" fill="white"/>
<path opacity="0.1" d="M299.602 214.162H360.37L360.507 210.682L299.804 210.389L299.602 214.162Z" fill="black"/>
<path opacity="0.3" d="M272.666 200.459L262.174 195.08H325.466L335.006 200.459H272.666Z" fill="black"/>
<path d="M262.315 195.204L299.783 210.389L299.601 214.162L262.174 198.777L262.315 195.204Z" fill="white"/>
<path d="M304.068 259.319H350.547V223.4H304.068V259.319Z" fill="white"/>
<path d="M306.346 259.319H348.591V225.037H306.346V259.319Z" fill="#DADDDF"/>
<path opacity="0.15" d="M306.346 257.593H348.591V256.442H306.346V257.593Z" fill="black"/>
<path opacity="0.15" d="M306.346 255.064H348.591V253.913H306.346V255.064Z" fill="black"/>
<path opacity="0.15" d="M306.346 252.531H348.591V251.38H306.346V252.531Z" fill="black"/>
<path opacity="0.15" d="M306.346 250.002H348.591V248.851H306.346V250.002Z" fill="black"/>
<path opacity="0.15" d="M306.346 247.472H348.591V246.321H306.346V247.472Z" fill="black"/>
<path opacity="0.15" d="M306.346 244.94H348.591V243.789H306.346V244.94Z" fill="black"/>
<path opacity="0.15" d="M306.346 242.414H348.591V241.263H306.346V242.414Z" fill="black"/>
<path opacity="0.15" d="M306.346 239.885H348.591V238.734H306.346V239.885Z" fill="black"/>
<path opacity="0.15" d="M306.346 237.356H348.591V236.205H306.346V237.356Z" fill="black"/>
<path opacity="0.15" d="M306.346 234.823H348.591V233.673H306.346V234.823Z" fill="black"/>
<path opacity="0.15" d="M306.346 232.294H348.591V231.143H306.346V232.294Z" fill="black"/>
<path opacity="0.15" d="M306.346 229.765H348.591V228.614H306.346V229.765Z" fill="black"/>
<path opacity="0.15" d="M306.346 227.236H348.591V226.085H306.346V227.236Z" fill="black"/>
<path opacity="0.15" d="M303.996 223.532V259.451L304.557 259.416V223.532H303.996Z" fill="black"/>
<path opacity="0.15" d="M348.559 224.941V259.323L349.119 259.289V224.941H348.559Z" fill="black"/>
<path d="M330.494 257.593H323.809V258.231H330.494V257.593Z" fill="#868A91"/>
<path d="M289.525 216.423H272.199V238.09H289.525V216.423Z" fill="white"/>
<path opacity="0.15" d="M289.483 216.385H289.002V238.052H289.483V216.385Z" fill="black"/>
<path d="M287.946 217.487H273.777V237.025H287.946V217.487Z" fill="#F0F0F0"/>
<path d="M281.174 217.701H279.908V236.99H281.174V217.701Z" fill="white"/>
<path opacity="0.6" d="M273.832 232.001L284.318 217.497H287.884V221.178L276.071 236.97L273.832 236.98V232.001Z" fill="white"/>
<path opacity="0.15" d="M273.771 217.442H273.348V236.99H273.771V217.442Z" fill="black"/>
<path opacity="0.15" d="M281.175 217.656H280.752V236.991H281.175V217.656Z" fill="black"/>
<path d="M287.946 231.312H273.348V232.004H287.946V231.312Z" fill="white"/>
<path opacity="0.6" d="M282.395 236.98L287.945 230.047V234.764L285.816 237.025L282.395 236.98Z" fill="white"/>
<path opacity="0.6" d="M273.832 222.518L277.367 217.497H281.009L273.832 226.774V222.518Z" fill="white"/>
<path d="M163.549 214.51H218.832L245.516 200.81H190.233L163.549 214.51Z" fill="#61656D"/>
<path d="M218.832 214.51L219.283 218.18L245.966 204.479L245.516 200.81L218.832 214.51Z" fill="white"/>
<path opacity="0.1" d="M218.832 214.51L219.283 218.18L245.966 204.479L245.516 200.81L218.832 214.51Z" fill="black"/>
<path d="M219.148 214.51L219.282 218.18H163.999L163.549 214.51H219.148Z" fill="white"/>
<path d="M223.951 256.632V222.188H204.854V256.632H223.951Z" fill="white"/>
<path d="M222.359 256.749V223.421H206.443V256.749H222.359Z" fill="#3F4249"/>
<path d="M209.24 234.362H218.949V226.412H209.24V234.362Z" fill="#F0F0F0"/>
<path opacity="0.15" d="M223.953 222.191H223.316V256.635H223.953V222.191Z" fill="black"/>
<path opacity="0.15" d="M206.443 223.466H205.807V256.635H206.443V223.466Z" fill="black"/>
<path d="M219.972 240.05C220.411 240.05 220.767 239.694 220.767 239.254C220.767 238.815 220.411 238.458 219.972 238.458C219.534 238.458 219.178 238.815 219.178 239.254C219.178 239.694 219.534 240.05 219.972 240.05Z" fill="white"/>
<path opacity="0.15" d="M219.973 238.448C219.905 238.45 219.839 238.459 219.773 238.475C219.943 238.52 220.094 238.62 220.201 238.759C220.309 238.899 220.367 239.069 220.367 239.246C220.367 239.422 220.309 239.593 220.201 239.732C220.094 239.872 219.943 239.971 219.773 240.016C219.838 240.034 219.905 240.043 219.973 240.043C220.082 240.051 220.191 240.035 220.294 239.998C220.397 239.962 220.491 239.904 220.571 239.829C220.65 239.755 220.714 239.664 220.757 239.564C220.801 239.463 220.823 239.355 220.823 239.246C220.823 239.136 220.801 239.028 220.757 238.928C220.714 238.827 220.65 238.737 220.571 238.662C220.491 238.587 220.397 238.53 220.294 238.493C220.191 238.456 220.082 238.441 219.973 238.448Z" fill="black"/>
<path opacity="0.6" d="M209.236 230.323L212.142 226.412H215.464L209.236 234.31V230.323Z" fill="white"/>
<path opacity="0.15" d="M209.556 226.336H209.236V234.31H209.556V226.336Z" fill="black"/>
<path opacity="0.6" d="M213.01 234.361L218.946 226.874V230.116L215.465 234.361H213.01Z" fill="white"/>
<path d="M165.596 259.288H254.513V256.687H165.596V259.288Z" fill="#61656D"/>
<path opacity="0.3" d="M225.229 259.288H254.512V256.687H225.229V259.288Z" fill="black"/>
<path d="M241.525 206.698V256.635H243.025H244.521H246.02V204.145L241.525 206.698Z" fill="white"/>
<path d="M168.232 256.635H171.228V218.18H168.232V256.635Z" fill="white"/>
<path d="M169.729 256.635H172.724V218.18H169.729V256.635Z" fill="white"/>
<path d="M205.145 256.735H207.084V240.085H205.145V256.735Z" fill="white"/>
<path opacity="0.1" d="M206.127 256.735H207.097V240.085H206.127V256.735Z" fill="black"/>
<path d="M199.449 256.735H201.351V240.085H199.449V256.735Z" fill="white"/>
<path opacity="0.1" d="M200.398 256.735H201.434V240.085H200.398V256.735Z" fill="black"/>
<path d="M193.758 256.735H195.622V240.085H193.758V256.735Z" fill="white"/>
<path opacity="0.1" d="M194.604 256.735H195.625V240.085H194.604V256.735Z" fill="black"/>
<path d="M188.064 256.735H189.891V240.085H188.064V256.735Z" fill="white"/>
<path opacity="0.1" d="M188.939 256.735H189.896V240.085H188.939V256.735Z" fill="black"/>
<path d="M182.336 256.735H184.162V240.085H182.336V256.735Z" fill="white"/>
<path opacity="0.1" d="M183.205 256.735H184.161V240.085H183.205V256.735Z" fill="black"/>
<path d="M176.605 256.735H178.432V240.085H176.605V256.735Z" fill="white"/>
<path opacity="0.1" d="M177.477 256.735H178.433V240.085H177.477V256.735Z" fill="black"/>
<path d="M169.838 241.439H213.645V239.733H169.838V241.439Z" fill="white"/>
<path d="M210.65 256.635H213.645V218.18H210.65V256.635Z" fill="white"/>
<path d="M212.146 256.635H215.142V218.18H212.146V256.635Z" fill="white"/>
<path opacity="0.1" d="M244.006 256.635H246.021V204.011L244.006 205.286V256.635Z" fill="black"/>
<path opacity="0.1" d="M170.475 256.635H172.724V218.18H170.475V256.635Z" fill="black"/>
<path opacity="0.1" d="M213.133 256.635H215.145V218.18H213.133V256.635Z" fill="black"/>
<path d="M364.287 221.54H359.008V259.064H364.287V221.54Z" fill="#61656D"/>
<path d="M349.209 218.463C349.209 218.463 349.512 229.761 359.31 235.812L359.213 232.435C359.213 232.435 352.713 225.978 353.429 220.482L349.209 218.463Z" fill="#61656D"/>
<path d="M374.687 218.463C374.687 218.463 373.933 230.178 364.135 236.219L363.623 232.332C363.623 232.332 372.162 226.584 370.862 219.672L374.687 218.463Z" fill="#61656D"/>
<path opacity="0.2" d="M364.287 222.077H361.873V259.064H364.287V222.077Z" fill="black"/>
<path opacity="0.2" d="M351.094 219.859C351.094 219.859 352.26 229.944 359.045 233.714L359.017 232.274C359.017 232.274 353.13 226.45 353.357 220.73C352.631 220.373 351.871 220.081 351.094 219.859Z" fill="black"/>
<path opacity="0.2" d="M372.558 219.792C372.558 219.792 373.404 227.408 364.305 233.965L364.246 231.897C364.246 231.897 371.468 226.856 370.918 220.451L372.558 219.792Z" fill="black"/>
<path d="M385.777 201.819C385.705 207.518 383.398 212.959 379.35 216.963C375.302 220.968 369.841 223.213 364.156 223.213C358.468 223.213 353.007 220.968 348.959 216.963C344.911 212.959 342.603 207.518 342.531 201.819C342.531 189.852 352.212 164.605 364.156 164.605C376.1 164.605 385.777 189.862 385.777 201.819Z" fill="#B2B6BB"/>
<path opacity="0.1" d="M377.954 175.969C377.985 176.624 378.002 177.282 378.002 177.944C378.002 197.057 366.344 212.546 351.968 212.546C349.451 212.54 346.961 212.063 344.619 211.14C346.731 215.575 350.283 219.159 354.696 221.304C359.108 223.449 364.115 224.029 368.899 222.947C373.683 221.866 377.957 219.187 381.025 215.351C384.089 211.516 385.761 206.75 385.768 201.837C385.778 195.114 382.738 184.239 377.954 175.969Z" fill="black"/>
<path opacity="0.05" d="M385.987 201.874C385.987 189.966 376.22 165.004 364.084 164.405V223.672C376.234 223.455 385.987 213.783 385.987 201.874Z" fill="black"/>
<path d="M388.594 213.58C388.487 217.059 387.016 220.355 384.495 222.753C381.977 225.151 378.617 226.457 375.144 226.386C371.67 226.315 368.365 224.874 365.944 222.375C363.527 219.877 362.189 216.523 362.223 213.042C362.371 205.747 368.589 190.462 375.869 190.613C383.15 190.765 388.742 206.285 388.594 213.58Z" fill="#B2B6BB"/>
<path opacity="0.1" d="M384.143 197.723C384.143 198.126 384.143 198.526 384.143 198.932C383.909 210.582 376.608 219.883 367.842 219.703C366.305 219.67 364.788 219.348 363.371 218.752C364.602 221.484 366.724 223.715 369.389 225.079C372.055 226.443 375.102 226.858 378.035 226.257C380.965 225.656 383.607 224.074 385.522 221.771C387.438 219.468 388.514 216.581 388.576 213.584C388.676 209.504 386.956 202.826 384.143 197.723Z" fill="black"/>
<path opacity="0.05" d="M388.721 213.618C388.866 206.358 383.219 191.01 375.832 190.5L375.096 226.643C382.497 226.657 388.573 220.875 388.721 213.618Z" fill="black"/>
<path d="M359.774 209.707C359.722 212.821 358.45 215.79 356.232 217.974C354.013 220.158 351.032 221.382 347.923 221.382C344.814 221.382 341.829 220.158 339.611 217.974C337.392 215.79 336.12 212.821 336.068 209.707C336.068 203.16 341.375 189.301 347.919 189.301C354.464 189.301 359.774 203.146 359.774 209.707Z" fill="#B2B6BB"/>
<path opacity="0.1" d="M355.489 195.535C355.489 195.879 355.517 196.258 355.517 196.624C355.517 207.095 349.127 215.575 341.248 215.575C339.869 215.572 338.503 215.312 337.221 214.807C338.38 217.238 340.326 219.203 342.747 220.379C345.165 221.555 347.913 221.871 350.533 221.277C353.157 220.683 355.499 219.213 357.178 217.109C358.859 215.004 359.774 212.391 359.774 209.697C359.774 206.031 358.106 200.069 355.489 195.535Z" fill="black"/>
<path opacity="0.05" d="M359.889 209.738C359.889 203.208 354.534 189.522 347.883 189.198V221.691C354.534 221.564 359.889 216.264 359.889 209.738Z" fill="black"/>
<path d="M121.503 112.722C121.503 112.722 118.752 112.112 116.864 110.234C114.976 108.356 111.657 102.856 103.214 105.206C94.7713 107.556 95.2459 108.962 91.0227 108.494C86.7995 108.025 82.5832 100.155 76.0215 101.916C69.4597 103.676 61.6152 112.718 61.6152 112.718H121.503V112.722Z" fill="white"/>
<path d="M327.503 95.4926C327.503 95.4926 324.752 94.8827 322.864 93.0048C320.976 91.1268 317.657 85.6274 309.214 87.9774C300.771 90.3274 301.246 91.7333 297.023 91.2647C292.8 90.796 288.583 82.9259 282.021 84.6867C275.46 86.4475 267.615 95.4892 267.615 95.4892H327.503V95.4926Z" fill="white"/>
<path d="M233.616 57.589C233.616 57.589 230.865 56.9791 228.977 55.1012C227.089 53.2232 223.77 47.7238 215.327 50.0738C206.885 52.4238 207.359 53.8297 203.136 53.3611C198.913 52.8924 194.697 45.0223 188.135 46.7831C181.573 48.5439 173.729 57.5856 173.729 57.5856H233.616V57.589Z" fill="white"/>
<path d="M120.814 74.4699C130.121 74.4699 137.666 66.9106 137.666 57.5856C137.666 48.2606 130.121 40.7012 120.814 40.7012C111.508 40.7012 103.963 48.2606 103.963 57.5856C103.963 66.9106 111.508 74.4699 120.814 74.4699Z" fill="white"/>
<path opacity="0.6" d="M114.828 284.694L205.809 259.45H223.317L168.784 284.518L114.828 284.694Z" fill="white"/>
<path d="M195.111 262.417H216.86L215.464 263.058H192.797L195.111 262.417Z" fill="#B2B6BB"/>
<path d="M182.387 265.863L207.574 266.552L206.178 267.193L180.072 266.504L182.387 265.863Z" fill="#B2B6BB"/>
<path d="M168.287 269.998L198.633 270.687L197.237 271.328L165.973 270.639L168.287 269.998Z" fill="#B2B6BB"/>
<path d="M149.027 275.167L185.22 276.89L183.824 277.531L146.713 275.808L149.027 275.167Z" fill="#B2B6BB"/>
<path d="M82.0597 254.588C81.9892 254.17 81.9538 253.747 81.9531 253.323C81.9531 248.523 86.4445 244.63 91.9849 244.63C97.5252 244.63 102.013 248.523 102.013 253.323C102.013 253.747 101.977 254.17 101.907 254.588H82.0597Z" fill="#868A91"/>
<path opacity="0.1" d="M82.0597 254.643C81.9892 254.224 81.9538 253.8 81.9531 253.375C81.9531 248.575 86.4445 244.685 91.9849 244.685C97.5252 244.685 102.013 248.575 102.013 253.375C102.013 253.8 101.977 254.224 101.907 254.643H82.0597Z" fill="black"/>
<path d="M70.7101 252.456C70.6379 251.862 70.6025 251.265 70.6035 250.667C70.6035 243.896 75.0915 238.407 80.6319 238.407C86.1722 238.407 90.6602 243.896 90.6602 250.667C90.6605 251.265 90.6261 251.862 90.557 252.456H70.7101Z" fill="#868A91"/>
<path d="M74.3792 259.963C74.4511 259.546 74.4869 259.123 74.4858 258.699C74.4858 253.899 69.9944 250.005 64.4575 250.005C58.9206 250.005 54.4258 253.899 54.4258 258.699C54.4265 259.123 54.4619 259.545 54.5324 259.963H74.3792Z" fill="#868A91"/>
<path d="M90.4478 259.964C90.5358 259.373 90.5809 258.776 90.5819 258.179C90.5819 251.408 84.8903 245.919 77.8574 245.919C70.8245 245.919 65.1328 251.408 65.1328 258.179C65.1321 258.776 65.1768 259.373 65.2669 259.964H90.4478Z" fill="#868A91"/>
<path opacity="0.1" d="M90.4478 259.957C90.5358 259.366 90.5809 258.769 90.5819 258.172C90.5819 251.401 84.8903 245.912 77.8574 245.912C70.8245 245.912 65.1328 251.401 65.1328 258.172C65.1321 258.769 65.1768 259.366 65.2669 259.957H90.4478Z" fill="black"/>
<path d="M80.6708 245.919C82.3707 245.936 84.0431 246.35 85.5556 247.128C87.0681 247.905 88.3795 249.025 89.3854 250.398C90.4773 250.14 91.5957 250.01 92.7178 250.012C98.9494 250.012 104.001 253.906 104.001 258.706C104.001 259.13 103.961 259.554 103.881 259.971H69.5076C69.4285 259.379 69.3893 258.782 69.3907 258.186C69.3907 251.408 74.4392 245.919 80.6708 245.919Z" fill="#868A91"/>
<path d="M97.7738 189.904H92.6152V284.663H97.7738V189.904Z" fill="#61656D"/>
<path opacity="0.2" d="M97.7723 189.904H96.0527V284.663H97.7723V189.904Z" fill="black"/>
<path d="M92.614 189.904H43.7793V194.383H92.614V189.904Z" fill="#61656D"/>
<path d="M43.7793 202.308V226.774H90.5506V202.308H43.7793ZM53.2367 206.099C52.9987 206.099 52.7659 206.028 52.5678 205.896C52.3701 205.763 52.2157 205.575 52.1245 205.355C52.0334 205.134 52.0097 204.891 52.0561 204.657C52.1025 204.423 52.217 204.209 52.3856 204.04C52.5537 203.871 52.7683 203.756 53.0018 203.71C53.2354 203.663 53.4775 203.687 53.6972 203.779C53.9173 203.87 54.1051 204.024 54.2375 204.223C54.3699 204.421 54.4404 204.654 54.4404 204.893C54.4407 205.051 54.4098 205.208 54.3496 205.355C54.2894 205.501 54.2007 205.635 54.0889 205.747C53.9768 205.859 53.8441 205.948 53.6979 206.008C53.5517 206.068 53.3949 206.099 53.2367 206.099ZM79.7175 206.099C79.4795 206.099 79.2467 206.028 79.0486 205.896C78.8509 205.763 78.6965 205.575 78.6053 205.355C78.5142 205.134 78.4905 204.891 78.5369 204.657C78.5833 204.423 78.6978 204.209 78.8664 204.04C79.0345 203.871 79.2491 203.756 79.4826 203.71C79.7162 203.663 79.9583 203.687 80.178 203.779C80.3981 203.87 80.5859 204.024 80.7183 204.223C80.8507 204.421 80.9212 204.654 80.9212 204.893C80.9215 205.051 80.8906 205.208 80.8304 205.355C80.7702 205.501 80.6815 205.635 80.5697 205.747C80.4576 205.859 80.3249 205.948 80.1787 206.008C80.0325 206.068 79.8757 206.099 79.7175 206.099Z" fill="#3476DB"/>
<path opacity="0.2" d="M43.7793 202.308V226.774H89.175V202.308H43.7793ZM53.2367 206.099C52.9987 206.099 52.7659 206.028 52.5678 205.896C52.3701 205.763 52.2157 205.575 52.1245 205.355C52.0334 205.134 52.0097 204.891 52.0561 204.657C52.1025 204.423 52.217 204.209 52.3856 204.04C52.5537 203.871 52.7683 203.756 53.0018 203.71C53.2354 203.663 53.4775 203.687 53.6972 203.779C53.9173 203.87 54.1051 204.024 54.2375 204.223C54.3699 204.421 54.4404 204.654 54.4404 204.893C54.4407 205.051 54.4098 205.208 54.3496 205.355C54.2894 205.501 54.2007 205.635 54.0889 205.747C53.9768 205.859 53.8441 205.948 53.6979 206.008C53.5517 206.068 53.3949 206.099 53.2367 206.099ZM79.7175 206.099C79.4795 206.099 79.2467 206.028 79.0486 205.896C78.8509 205.763 78.6965 205.575 78.6053 205.355C78.5142 205.134 78.4905 204.891 78.5369 204.657C78.5833 204.423 78.6978 204.209 78.8664 204.04C79.0345 203.871 79.2491 203.756 79.4826 203.71C79.7162 203.663 79.9583 203.687 80.178 203.779C80.3981 203.87 80.5859 204.024 80.7183 204.223C80.8507 204.421 80.9212 204.654 80.9212 204.893C80.9215 205.051 80.8906 205.208 80.8304 205.355C80.7702 205.501 80.6815 205.635 80.5697 205.747C80.4576 205.859 80.3249 205.948 80.1787 206.008C80.0325 206.068 79.8757 206.099 79.7175 206.099Z" fill="white"/>
<path d="M79.2015 204.893C79.2025 204.634 79.2868 204.382 79.4415 204.175C79.5963 203.968 79.8136 203.816 80.0613 203.742C79.9495 203.708 79.8339 203.689 79.7173 203.687C79.3982 203.687 79.0918 203.814 78.8662 204.04C78.6406 204.266 78.5137 204.573 78.5137 204.893C78.5137 205.213 78.6406 205.52 78.8662 205.746C79.0918 205.972 79.3982 206.099 79.7173 206.099C79.8339 206.098 79.9502 206.08 80.0613 206.044C79.8133 205.97 79.5956 205.819 79.4408 205.611C79.2857 205.404 79.2018 205.152 79.2015 204.893Z" fill="#3476DB"/>
<path d="M52.721 204.893C52.722 204.634 52.8063 204.382 52.9611 204.175C53.1158 203.968 53.3332 203.816 53.5808 203.742C53.469 203.708 53.3535 203.689 53.2369 203.687C52.9177 203.687 52.6113 203.814 52.3857 204.04C52.1601 204.266 52.0332 204.573 52.0332 204.893C52.0332 205.213 52.1601 205.52 52.3857 205.746C52.6113 205.972 52.9177 206.099 53.2369 206.099C53.3535 206.098 53.4697 206.08 53.5808 206.044C53.3328 205.97 53.1151 205.819 52.9604 205.611C52.8053 205.404 52.7214 205.152 52.721 204.893Z" fill="#3476DB"/>
<path d="M53.2363 194.383V204.376" stroke="#61656D" stroke-width="3" stroke-miterlimit="10" stroke-linecap="round"/>
<path d="M79.7188 194.555V204.548" stroke="#61656D" stroke-width="3" stroke-miterlimit="10" stroke-linecap="round"/>
<path d="M86.2524 208.855H46.7031V223.328H86.2524V208.855Z" stroke="white" stroke-width="0.99" stroke-miterlimit="10"/>
<path d="M51.582 215.213H62.3497L56.8988 211.027L51.582 215.213Z" fill="white"/>
<path d="M60.7855 214.349H53.0098V221.271H55.8195V218.242H57.9792V221.271H60.7855V214.349Z" fill="white"/>
<path d="M80.4909 214.024H66.0469V215.01H80.4909V214.024Z" fill="white"/>
<path d="M78.2565 217.174H68.2832V218.159H78.2565V217.174Z" fill="white"/>
<path d="M298.683 278.723C298.614 278.305 298.576 277.882 298.576 277.458C298.576 272.655 303.068 268.764 308.608 268.764C314.148 268.764 318.636 272.655 318.636 277.458C318.636 277.882 318.598 278.305 318.53 278.723H298.683Z" fill="#868A91"/>
<path opacity="0.1" d="M298.683 278.788C298.611 278.369 298.576 277.945 298.576 277.52C298.576 272.72 303.068 268.83 308.608 268.83C314.148 268.83 318.636 272.72 318.636 277.52C318.636 277.945 318.598 278.369 318.53 278.788H298.683Z" fill="black"/>
<path d="M287.333 276.586C287.261 275.994 287.227 275.398 287.227 274.801C287.227 268.03 291.697 262.541 297.255 262.541C302.812 262.541 307.283 268.03 307.283 274.801C307.283 275.398 307.249 275.994 307.18 276.586H287.333Z" fill="#868A91"/>
<path d="M291.004 284.098C291.076 283.681 291.111 283.257 291.111 282.833C291.111 278.03 286.64 274.14 281.083 274.14C275.525 274.14 271.051 278.03 271.051 282.833C271.052 283.257 271.087 283.681 271.157 284.098H291.004Z" fill="#868A91"/>
<path d="M307.057 284.098C307.147 283.509 307.191 282.909 307.191 282.313C307.191 275.542 301.5 270.053 294.467 270.053C287.434 270.053 281.742 275.542 281.742 282.313C281.742 282.909 281.787 283.509 281.876 284.098H307.057Z" fill="#868A91"/>
<path opacity="0.1" d="M307.057 284.091C307.147 283.498 307.191 282.902 307.191 282.306C307.191 275.535 301.5 270.046 294.467 270.046C287.434 270.046 281.742 275.535 281.742 282.306C281.742 282.902 281.787 283.502 281.876 284.091H307.057Z" fill="black"/>
<path d="M297.294 270.053C298.993 270.07 300.668 270.484 302.181 271.261C303.69 272.039 305.004 273.159 306.008 274.533C307.102 274.274 308.22 274.145 309.341 274.147C315.572 274.147 320.624 278.037 320.624 282.84C320.624 283.264 320.583 283.688 320.504 284.105H286.131C286.055 283.512 286.014 282.916 286.014 282.32C286.014 275.542 291.062 270.053 297.294 270.053Z" fill="#868A91"/>
<path d="M86.3211 274.443C85.1828 273.254 83.8965 272.079 82.882 270.777C82.6585 270.487 81.4754 268.623 82.3627 268.802C83.25 268.981 84.1132 270.391 84.5259 271.076C84.9386 271.762 85.3753 272.455 85.7708 273.144C85.9638 273.443 86.1282 273.758 86.2626 274.088C86.2626 274.129 86.3933 274.515 86.3142 274.432C85.4544 273.547 86.4552 274.588 86.3211 274.443Z" fill="#1ABC9C"/>
<path d="M91.2719 284.697C91.2268 284.25 91.1288 283.805 90.9796 283.381C90.6646 282.52 90.2078 281.72 89.628 281.01C88.414 279.494 86.777 278.098 84.8924 277.537C84.4564 277.403 84.0062 277.319 83.5512 277.289C83.338 277.289 82.6708 277.223 82.5195 277.423C82.3682 277.623 82.5745 277.568 82.7396 277.626C83.0732 277.75 83.3964 277.9 83.7059 278.074C86.6016 279.604 90.0407 281.39 91.0071 284.718L91.2719 284.697Z" fill="#1ABC9C"/>
<path opacity="0.2" d="M91.2719 284.697C91.2268 284.25 91.1288 283.805 90.9796 283.381C90.6646 282.52 90.2078 281.72 89.628 281.01C88.414 279.494 86.777 278.098 84.8924 277.537C84.4564 277.403 84.0062 277.319 83.5512 277.289C83.338 277.289 82.6708 277.223 82.5195 277.423C82.3682 277.623 82.5745 277.568 82.7396 277.626C83.0732 277.75 83.3964 277.9 83.7059 278.074C86.6016 279.604 90.0407 281.39 91.0071 284.718L91.2719 284.697Z" fill="black"/>
<path d="M91.8802 284.656C91.5363 282.068 90.6043 279.619 89.5933 277.231C89.1359 276.142 88.6819 275.039 88.1351 273.992C87.4714 272.727 86.6804 271.507 85.9066 270.305C85.5386 269.736 85.1637 269.178 84.7614 268.637C84.5791 268.389 84.3899 268.148 84.1905 267.913C84.1148 267.824 83.7537 267.531 83.7434 267.421C83.7262 267.252 83.8947 267.379 83.991 267.421C84.2307 267.553 84.4608 267.703 84.6788 267.869C85.2078 268.271 85.6961 268.725 86.137 269.223C87.092 270.267 87.8954 271.441 88.5237 272.71C89.1077 273.973 89.6256 275.266 90.0747 276.583C90.6487 278.097 91.1243 279.646 91.4985 281.221C91.6632 281.927 91.7908 282.64 91.8802 283.357C91.9181 283.664 91.9421 283.967 91.9593 284.274C91.9593 284.346 92.0144 284.556 91.9765 284.618C91.9765 284.622 91.9009 284.811 91.8802 284.656Z" fill="#1ABC9C"/>
<path opacity="0.2" d="M91.8802 284.656C91.5363 282.068 90.6043 279.619 89.5933 277.231C89.1359 276.142 88.6819 275.039 88.1351 273.992C87.4714 272.727 86.6804 271.507 85.9066 270.305C85.5386 269.736 85.1637 269.178 84.7614 268.637C84.5791 268.389 84.3899 268.148 84.1905 267.913C84.1148 267.824 83.7537 267.531 83.7434 267.421C83.7262 267.252 83.8947 267.379 83.991 267.421C84.2307 267.553 84.4608 267.703 84.6788 267.869C85.2078 268.271 85.6961 268.725 86.137 269.223C87.092 270.267 87.8954 271.441 88.5237 272.71C89.1077 273.973 89.6256 275.266 90.0747 276.583C90.6487 278.097 91.1243 279.646 91.4985 281.221C91.6632 281.927 91.7908 282.64 91.8802 283.357C91.9181 283.664 91.9421 283.967 91.9593 284.274C91.9593 284.346 92.0144 284.556 91.9765 284.618C91.9765 284.622 91.9009 284.811 91.8802 284.656Z" fill="black"/>
<path d="M91.7948 284.66H92.008C91.9874 284.518 91.9564 284.37 91.9461 284.256C91.8773 283.629 91.7704 283.006 91.6263 282.392C91.3164 281.052 90.8222 279.761 90.1578 278.557C88.9232 276.355 87.183 274.374 84.8513 273.323C84.6312 273.226 82.0588 272.289 81.9969 272.634C81.9659 272.799 82.8635 273.213 83.0045 273.302C83.4629 273.594 83.9217 273.899 84.3801 274.219C86.3576 275.621 88.2697 277.175 89.5972 279.236C90.6358 280.904 91.3793 282.737 91.7948 284.66Z" fill="#1ABC9C"/>
<path d="M92.9713 284.58H93.0744C93.0744 284.418 93.0538 284.236 93.0435 284.091C93.0125 283.629 92.9747 283.171 92.93 282.713C92.8371 281.679 92.7133 280.645 92.5517 279.612C92.2491 277.727 91.9189 275.849 91.1417 274.098C90.9639 273.694 90.7654 273.3 90.5467 272.916C90.5054 272.851 90.2028 272.265 90.1306 272.393C90.1031 272.437 90.1856 272.658 90.1959 272.71C90.2338 272.878 90.275 273.054 90.3163 273.223C90.416 273.633 90.5158 274.047 90.6224 274.457C91.0935 276.304 91.6782 278.116 92.0909 279.97C92.4348 281.5 92.7133 283.037 92.9713 284.58Z" fill="#1ABC9C"/>
<path opacity="0.2" d="M92.9713 284.58H93.0744C93.0744 284.418 93.0538 284.236 93.0435 284.091C93.0125 283.629 92.9747 283.171 92.93 282.713C92.8371 281.679 92.7133 280.645 92.5517 279.612C92.2491 277.727 91.9189 275.849 91.1417 274.098C90.9639 273.694 90.7654 273.3 90.5467 272.916C90.5054 272.851 90.2028 272.265 90.1306 272.393C90.1031 272.437 90.1856 272.658 90.1959 272.71C90.2338 272.878 90.275 273.054 90.3163 273.223C90.416 273.633 90.5158 274.047 90.6224 274.457C91.0935 276.304 91.6782 278.116 92.0909 279.97C92.4348 281.5 92.7133 283.037 92.9713 284.58Z" fill="white"/>
<path d="M96.2946 279.108C96.0927 278.036 96.0594 276.939 96.1949 275.856C96.2468 275.215 96.362 274.582 96.5388 273.964C96.7324 273.384 96.992 272.827 97.3125 272.306C97.4329 272.093 97.5567 271.883 97.6771 271.666C97.7115 271.604 97.8903 271.145 97.9488 271.135C98.1758 271.097 97.9832 272.169 97.9488 272.32C97.8006 272.904 97.5884 273.469 97.316 274.005C97.0457 274.579 96.8493 275.184 96.7313 275.807C96.5897 276.456 96.4841 277.112 96.415 277.771C96.3874 278.064 96.3702 278.361 96.3702 278.657C96.3833 278.772 96.3833 278.887 96.3702 279.002C96.384 278.964 96.3393 279.294 96.2946 279.108Z" fill="#1ABC9C"/>
<path opacity="0.2" d="M96.2946 279.108C96.0927 278.036 96.0594 276.939 96.1949 275.856C96.2468 275.215 96.362 274.582 96.5388 273.964C96.7324 273.384 96.992 272.827 97.3125 272.306C97.4329 272.093 97.5567 271.883 97.6771 271.666C97.7115 271.604 97.8903 271.145 97.9488 271.135C98.1758 271.097 97.9832 272.169 97.9488 272.32C97.8006 272.904 97.5884 273.469 97.316 274.005C97.0457 274.579 96.8493 275.184 96.7313 275.807C96.5897 276.456 96.4841 277.112 96.415 277.771C96.3874 278.064 96.3702 278.361 96.3702 278.657C96.3833 278.772 96.3833 278.887 96.3702 279.002C96.384 278.964 96.3393 279.294 96.2946 279.108Z" fill="black"/>
<path d="M95.1114 270.532C95.1905 271.014 95.2593 271.5 95.3315 271.986C95.6444 274.16 95.8852 276.348 96.0021 278.533C96.0949 280.314 96.2015 282.623 96.3769 284.48H96.5489C96.5248 284.136 96.4973 283.743 96.4973 283.591C96.4973 283.047 96.4595 282.299 96.4664 281.751C96.4664 280.525 96.5111 279.295 96.5145 278.068C96.5145 275.931 96.5145 273.792 95.9023 271.728C95.772 271.268 95.6135 270.817 95.4278 270.377C95.3383 270.167 95.2352 269.956 95.132 269.753C95.1079 269.701 95.022 269.457 94.9532 269.546C94.8844 269.636 94.9876 269.822 94.9979 269.891C95.0323 270.101 95.077 270.315 95.1114 270.532Z" fill="#1ABC9C"/>
<path d="M98.1238 284.653C98.172 283.619 98.2201 282.282 98.282 281.81C98.4574 280.431 98.6741 279.077 98.9458 277.726C99.4297 275.556 100.083 273.427 100.899 271.359C101.099 270.818 101.302 270.277 101.515 269.742C101.573 269.605 101.962 268.847 101.718 268.874C101.59 268.891 101.302 269.277 101.209 269.377C101.013 269.584 100.834 269.798 100.658 270.022C100.32 270.455 100.017 270.916 99.7539 271.4C98.6397 273.429 98.2958 275.707 98.0344 277.978C97.8136 280.206 97.7197 282.444 97.7524 284.684L98.1238 284.653Z" fill="#1ABC9C"/>
<path d="M107.298 266.811C106.981 266.878 106.678 267.003 106.404 267.179C106.108 267.323 105.82 267.483 105.541 267.658C105.006 267.995 104.501 268.376 104.031 268.799C101.724 270.866 100.492 273.744 99.5088 276.614C98.7453 278.843 97.8959 282.089 98.0128 284.66L98.2811 284.639C98.2639 284.484 98.2501 284.363 98.2501 284.346C98.2553 284.012 98.2793 283.681 98.3223 283.35C98.4296 282.544 98.5974 281.748 98.8244 280.966C99.2959 279.346 99.8761 277.759 100.561 276.218C101.778 273.468 103.449 270.944 105.503 268.751C105.999 268.217 106.521 267.709 107.068 267.228C107.25 267.069 107.68 266.814 107.298 266.811Z" fill="#1ABC9C"/>
<path opacity="0.2" d="M107.298 266.811C106.981 266.878 106.678 267.003 106.404 267.179C106.108 267.323 105.82 267.483 105.541 267.658C105.006 267.995 104.501 268.376 104.031 268.799C101.724 270.866 100.492 273.744 99.5088 276.614C98.7453 278.843 97.8959 282.089 98.0128 284.66L98.2811 284.639C98.2639 284.484 98.2501 284.363 98.2501 284.346C98.2553 284.012 98.2793 283.681 98.3223 283.35C98.4296 282.544 98.5974 281.748 98.8244 280.966C99.2959 279.346 99.8761 277.759 100.561 276.218C101.778 273.468 103.449 270.944 105.503 268.751C105.999 268.217 106.521 267.709 107.068 267.228C107.25 267.069 107.68 266.814 107.298 266.811Z" fill="white"/>
<path d="M107.873 274.356C107.698 274.153 106.749 274.325 106.529 274.356C106.127 274.429 105.733 274.545 105.356 274.701C103.255 275.528 101.759 277.344 100.51 279.16C99.3722 280.829 98.5634 282.699 98.127 284.673L98.4537 284.653C98.5087 284.339 98.5672 284.046 98.6015 283.943C98.8051 283.385 99.0548 282.847 99.3478 282.334C99.9445 281.286 100.642 280.301 101.432 279.391C102.834 277.788 104.47 276.407 106.284 275.294C106.666 275.056 107.065 274.846 107.478 274.666C107.598 274.591 108.011 274.518 107.873 274.356Z" fill="#1ABC9C"/>
<path opacity="0.2" d="M107.873 274.356C107.698 274.153 106.749 274.325 106.529 274.356C106.127 274.429 105.733 274.545 105.356 274.701C103.255 275.528 101.759 277.344 100.51 279.16C99.3722 280.829 98.5634 282.699 98.127 284.673L98.4537 284.653C98.5087 284.339 98.5672 284.046 98.6015 283.943C98.8051 283.385 99.0548 282.847 99.3478 282.334C99.9445 281.286 100.642 280.301 101.432 279.391C102.834 277.788 104.47 276.407 106.284 275.294C106.666 275.056 107.065 274.846 107.478 274.666C107.598 274.591 108.011 274.518 107.873 274.356Z" fill="black"/>
</g>
<defs>
<linearGradient id="paint0_linear_439_16118" x1="206.001" y1="0.251541" x2="206.001" y2="284.694" gradientUnits="userSpaceOnUse">
<stop stop-color="#07A5EC"/>
<stop offset="1" stop-color="#3476DB"/>
</linearGradient>
<clipPath id="clip0_439_16118">
<rect width="412" height="286" fill="white"/>
</clipPath>
</defs>
</svg>
